<svg width="32" height="32" viewBox="0 0 32 32" fill="none" xmlns="http://www.w3.org/2000/svg">
<path d="M19.3342 20.2139L21.0564 18.491C21.2883 18.2618 21.5818 18.1049 21.9012 18.0394C22.2205 17.9739 22.552 18.0025 22.8555 18.1218L24.9544 18.9602C25.261 19.0847 25.5239 19.2972 25.71 19.5709C25.8961 19.8447 25.997 20.1674 26 20.4985V24.3442C25.9982 24.5694 25.9509 24.7919 25.8609 24.9983C25.7709 25.2047 25.6401 25.3908 25.4763 25.5453C25.3125 25.6998 25.1192 25.8195 24.9079 25.8973C24.6967 25.9751 24.4719 26.0093 24.2471 25.9979C9.5392 25.0826 6.57149 12.6224 6.01024 7.85368C5.98419 7.6195 6.00799 7.38246 6.08009 7.15814C6.15218 6.93383 6.27094 6.72733 6.42854 6.55223C6.58614 6.37713 6.77901 6.23739 6.99447 6.14222C7.20993 6.04704 7.44309 5.99859 7.67862 6.00003H11.3921C11.7235 6.00101 12.047 6.10115 12.321 6.28756C12.595 6.47397 12.807 6.73814 12.9298 7.04607L13.7678 9.14584C13.891 9.44817 13.9224 9.78011 13.8582 10.1002C13.7939 10.4203 13.6368 10.7144 13.4065 10.9456L11.6843 12.6685C11.6843 12.6685 12.6761 19.3832 19.3342 20.2139Z" fill="white"/>
</svg>
