<svg width="114" height="39" viewBox="0 0 114 39" fill="none" xmlns="http://www.w3.org/2000/svg">
<path d="M50.014 24.7033H48.0406V17.0403H49.8958V18.2932C50.2898 17.7597 50.7354 17.3717 51.2326 17.1292C51.7358 16.8813 52.3269 16.7573 53.0059 16.7573C53.6788 16.7573 54.2366 16.884 54.6791 17.1373C55.1217 17.3852 55.4582 17.7651 55.6885 18.277C56.1432 17.7489 56.6252 17.3636 57.1344 17.1211C57.6498 16.8786 58.2348 16.7573 58.8895 16.7573C59.4594 16.7573 59.9565 16.8517 60.3809 17.0403C60.8053 17.2235 61.1357 17.4929 61.3721 17.8486C61.4813 18.0157 61.5601 18.215 61.6086 18.4468C61.6631 18.6785 61.6904 19.0099 61.6904 19.441V24.7033H59.7171V20.7667C59.7171 19.7374 59.5928 19.0611 59.3442 18.7378C59.1017 18.409 58.6652 18.2447 58.0347 18.2447C57.2587 18.2447 56.704 18.4656 56.3706 18.9075C56.0432 19.344 55.8795 20.1119 55.8795 21.2113V24.7033H53.888V20.7667C53.888 19.8182 53.7576 19.1608 53.4969 18.7944C53.2423 18.4279 52.7997 18.2447 52.1692 18.2447C51.7812 18.2447 51.4266 18.3228 51.1053 18.4791C50.7839 18.6354 50.5293 18.8509 50.3414 19.1258C50.2201 19.3036 50.1353 19.5219 50.0868 19.7805C50.0383 20.0392 50.014 20.5161 50.014 21.2113V24.7033Z" fill="white"/>
<path d="M72.4484 24.7033H70.475V23.709C70.1234 24.1509 69.7112 24.4797 69.2383 24.6952C68.7715 24.9108 68.2349 25.0185 67.6287 25.0185C66.4101 25.0185 65.4492 24.6494 64.7459 23.9111C64.0488 23.1675 63.7002 22.1516 63.7002 20.8637C63.7002 19.6404 64.0578 18.6542 64.7732 17.9052C65.4886 17.1507 66.4222 16.7735 67.5741 16.7735C68.2774 16.7735 68.8776 16.9055 69.3747 17.1696C69.8779 17.4283 70.2447 17.8028 70.475 18.2932V17.0403H72.4484V24.7033ZM70.5296 20.8475C70.5296 20.0554 70.3204 19.4383 69.9021 18.9964C69.4899 18.5545 68.9109 18.3336 68.1652 18.3336C67.4195 18.3336 66.8315 18.5626 66.401 19.0207C65.9766 19.4734 65.7644 20.1039 65.7644 20.9122C65.7644 21.7259 65.9706 22.3537 66.3828 22.7956C66.7951 23.2375 67.3771 23.4585 68.1288 23.4585C68.8382 23.4585 69.4141 23.2187 69.8567 22.739C70.3053 22.2594 70.5296 21.6289 70.5296 20.8475Z" fill="white"/>
<path d="M81.3694 20.8475C81.3694 20.0554 81.1602 19.4383 80.7419 18.9964C80.3297 18.5545 79.7507 18.3336 79.005 18.3336C78.2593 18.3336 77.6713 18.5626 77.2408 19.0207C76.8164 19.4734 76.6042 20.1039 76.6042 20.9122C76.6042 21.7259 76.8104 22.3537 77.2226 22.7956C77.6349 23.2375 78.2169 23.4585 78.9686 23.4585C79.6779 23.4585 80.2539 23.2187 80.6965 22.739C81.1451 22.2594 81.3694 21.6289 81.3694 20.8475ZM83.2882 24.2264C83.2882 25.7245 82.9517 26.778 82.2788 27.387C81.6058 28.0013 80.4721 28.3085 78.8777 28.3085C77.6894 28.3085 76.7407 28.0848 76.0313 27.6376C75.322 27.1957 74.9613 26.6056 74.9492 25.8673L77.068 25.8592C77.0983 26.1879 77.2711 26.4385 77.5864 26.611C77.9016 26.7834 78.3442 26.8696 78.9141 26.8696C79.7568 26.8696 80.363 26.7053 80.7328 26.3766C81.1026 26.0478 81.2906 25.4982 81.2966 24.7275L81.3148 23.709C80.9632 24.1509 80.551 24.4797 80.0781 24.6952C79.6113 24.9108 79.0747 25.0185 78.4685 25.0185C77.2499 25.0185 76.289 24.6494 75.5857 23.9111C74.8886 23.1675 74.54 22.1516 74.54 20.8637C74.54 19.6404 74.8976 18.6542 75.613 17.9052C76.3284 17.1507 77.262 16.7735 78.4139 16.7735C79.1172 16.7735 79.7174 16.9055 80.2145 17.1696C80.7177 17.4283 81.0845 17.8028 81.3148 18.2932V17.0403H83.2882V24.2264Z" fill="white"/>
<path d="M94.2644 25.1641L92.2729 21.1789C92.1213 20.8718 91.997 20.5996 91.9 20.3625C91.803 20.12 91.7151 19.8829 91.6363 19.6512C91.5029 20.0015 91.3847 20.3033 91.2816 20.5565C91.1786 20.8044 91.0967 20.9903 91.0361 21.1143L88.99 25.1641L84.5249 17.0403H86.6256L88.5626 20.7344C88.6414 20.8906 88.7172 21.1062 88.7899 21.381C88.8687 21.6505 88.9354 21.9496 88.99 22.2783C88.9961 22.0843 89.0324 21.8822 89.0991 21.672C89.1658 21.4619 89.278 21.2032 89.4356 20.896L91.5453 16.7573H91.709L93.8552 20.896C93.9885 21.1547 94.0855 21.3945 94.1462 21.6155C94.2129 21.8364 94.2523 22.0573 94.2644 22.2783C94.319 21.9873 94.3887 21.7125 94.4735 21.4538C94.5584 21.1951 94.6554 20.9607 94.7645 20.7505L96.6651 17.0403H98.7476L94.2644 25.1641Z" fill="white"/>
<path d="M108.096 24.7033H106.123V23.709C105.771 24.1509 105.359 24.4797 104.886 24.6952C104.419 24.9108 103.883 25.0185 103.276 25.0185C102.058 25.0185 101.097 24.6494 100.394 23.9111C99.6964 23.1675 99.3478 22.1516 99.3478 20.8637C99.3478 19.6404 99.7055 18.6542 100.421 17.9052C101.136 17.1507 102.07 16.7735 103.222 16.7735C103.925 16.7735 104.525 16.9055 105.022 17.1696C105.526 17.4283 105.892 17.8028 106.123 18.2932V17.0403H108.096V24.7033ZM106.177 20.8475C106.177 20.0554 105.968 19.4383 105.55 18.9964C105.138 18.5545 104.559 18.3336 103.813 18.3336C103.067 18.3336 102.479 18.5626 102.049 19.0207C101.624 19.4734 101.412 20.1039 101.412 20.9122C101.412 21.7259 101.618 22.3537 102.03 22.7956C102.443 23.2375 103.025 23.4585 103.776 23.4585C104.486 23.4585 105.062 23.2187 105.504 22.739C105.953 22.2594 106.177 21.6289 106.177 20.8475Z" fill="white"/>
<path d="M110.651 13.7261C110.651 13.4297 110.773 13.1737 111.015 12.9582C111.264 12.7426 111.558 12.6348 111.897 12.6348C112.249 12.6348 112.54 12.7399 112.77 12.9501C113.007 13.1549 113.125 13.4135 113.125 13.7261C113.125 14.0386 113.007 14.3027 112.77 14.5183C112.534 14.7284 112.243 14.8335 111.897 14.8335C111.558 14.8335 111.264 14.7257 111.015 14.5102C110.773 14.2892 110.651 14.0279 110.651 13.7261ZM110.915 24.7033V17.0403H112.888V24.7033H110.915Z" fill="white"/>
<path d="M14.0048 7.53564C14.0048 7.53564 8.50562 7.57111 8.00021 7.62386C7.02861 7.72275 4.87068 8.14577 3.98238 9.72864C2.77247 11.8853 5.05031 14.9406 5.05031 14.9406L7.9141 19.0105" stroke="#BFECFF" stroke-width="1.5" stroke-linecap="round"/>
<path d="M10.8302 30.8107C11.5435 30.4144 11.7603 29.5791 11.3145 28.9451C10.8687 28.311 9.929 28.1183 9.21567 28.5145L8.35445 28.993C7.64112 29.3893 7.42428 30.2246 7.8701 30.8586C8.31593 31.4927 9.25561 31.6855 9.96894 31.2892L10.8302 30.8107Z" fill="white"/>
<path d="M17.216 20.1675C17.9293 19.7712 18.1462 18.9359 17.7004 18.3018C17.2545 17.6678 16.3149 17.475 15.6015 17.8713L7.27703 22.496C6.5637 22.8923 6.34685 23.7276 6.79268 24.3617C7.23851 24.9957 8.17819 25.1885 8.89151 24.7922L17.216 20.1675Z" fill="white"/>
<path d="M20.2046 25.6036C20.9179 25.2073 21.1347 24.3721 20.6889 23.738C20.2431 23.1039 19.3034 22.9112 18.5901 23.3075L13.8333 25.9501C13.12 26.3464 12.9032 27.1816 13.349 27.8157C13.7948 28.4498 14.7345 28.6425 15.4478 28.2462L20.2046 25.6036Z" fill="white"/>
<path d="M37.74 18.7022C38.2949 18.394 38.4635 17.7443 38.1168 17.2511C37.77 16.758 37.0391 16.608 36.4843 16.9163C35.9295 17.2245 35.7608 17.8742 36.1076 18.3673C36.4543 18.8605 37.1852 19.0104 37.74 18.7022Z" fill="white"/>
<path fill-rule="evenodd" clip-rule="evenodd" d="M30.8513 22.6472C30.0066 24.1668 29.0387 25.9116 28.1707 27.4766C26.9542 29.6695 25.9337 31.5092 25.7228 31.8804C24.9168 33.3043 24.1324 33.7846 23.1859 33.7016C22.4528 33.6428 21.4854 32.8234 21.4212 31.1918C21.357 29.5601 21.1365 25.0913 17.2738 27.2366C17.2075 27.1423 17.1751 26.9964 17.14 26.8386C17.0988 26.6528 17.0538 26.4504 16.9456 26.2964C16.0446 25.015 12.3375 19.689 12.6064 19.5396C12.8754 19.3901 14.1179 18.3655 13.3381 17.1882C12.6669 16.1747 11.5685 15.5952 10.3804 14.9684C10.1882 14.867 9.99374 14.7644 9.79834 14.6585C7.99495 13.6301 7.57686 12.8344 7.99871 11.7691C8.53383 10.7654 10.2977 10.7683 11.02 10.7892C11.7273 10.8101 17.1269 10.835 22.5361 10.8427L19.012 19.4349C18.8277 19.9391 18.8472 20.4847 19.0672 20.9776C19.4619 21.4083 20.0271 21.6882 20.6468 21.76L30.8491 22.6454C30.8499 22.646 30.8506 22.6466 30.8513 22.6472ZM26.62 10.8448C26.4636 10.8725 26.312 10.9219 26.171 10.9923C25.8663 11.1442 25.6294 11.3845 25.4999 11.6729C24.2594 14.1887 23.9127 14.9899 23.4194 16.1299C23.3082 16.3869 23.1896 16.661 23.0516 16.9759C23.0321 17.0264 23.008 17.0863 22.981 17.1533C22.7689 17.6801 22.3773 18.6524 22.6487 19.0384C22.8819 19.3701 23.4054 19.4175 24.4009 19.5076C24.5445 19.5205 24.6979 19.5344 24.8617 19.5502C27.5832 19.8092 31.4288 20.1051 31.4288 20.1051C31.7707 20.076 32.0954 19.9582 32.3626 19.7664C32.4254 19.7213 32.4843 19.6726 32.5392 19.6206C32.6394 19.4422 32.7274 19.2858 32.8015 19.1549L35.381 14.591C35.3896 14.5757 35.3986 14.5598 35.408 14.5434C35.9341 13.615 37.5462 10.7707 32.731 10.8221C31.3528 10.8368 29.1303 10.8435 26.62 10.8448Z" fill="white"/>
<path d="M39.7765 14.1406C39.7765 14.1406 41.55 11.671 40.1349 9.61551C38.7198 7.55998 34.6871 7.52905 34.6871 7.52905L19.6931 7.60056" stroke="#FE60B7" stroke-width="1.5" stroke-linecap="round"/>
<path d="M16.3136 31.163C16.3136 31.163 19.2721 35.3966 19.4183 35.5791C19.8237 36.0879 21.5305 37.9863 23.8168 37.792C26.5155 37.5622 28.225 34.2268 28.225 34.2268L35.3252 21.5908" stroke="#A072FD" stroke-width="1.5" stroke-linecap="round"/>
</svg>
